<mxfile host="app.diagrams.net" agent="Mozilla/5.0 (Windows NT 10.0; Win64; x64) AppleWebKit/537.36 (KHTML, like Gecko) Chrome/129.0.0.0 Safari/537.36" version="24.7.16">
  <diagram name="第 1 页" id="N1KNKgnviEIpcnip5-li">
    <mxGraphModel dx="1834" dy="1538" grid="0" gridSize="10" guides="1" tooltips="1" connect="1" arrows="1" fold="1" page="0" pageScale="1" pageWidth="827" pageHeight="1169" math="0" shadow="0">
      <root>
        <mxCell id="0" />
        <mxCell id="1" parent="0" />
        <mxCell id="DJuS9vDelUrMUvVU49_g-10" style="edgeStyle=orthogonalEdgeStyle;rounded=0;orthogonalLoop=1;jettySize=auto;html=1;exitX=1;exitY=0.5;exitDx=0;exitDy=0;entryX=0;entryY=0.5;entryDx=0;entryDy=0;" edge="1" parent="1" source="DJuS9vDelUrMUvVU49_g-1" target="DJuS9vDelUrMUvVU49_g-9">
          <mxGeometry relative="1" as="geometry" />
        </mxCell>
        <mxCell id="DJuS9vDelUrMUvVU49_g-1" value="Net:Train" style="rounded=0;whiteSpace=wrap;html=1;" vertex="1" parent="1">
          <mxGeometry x="63" y="-583" width="120" height="60" as="geometry" />
        </mxCell>
        <mxCell id="DJuS9vDelUrMUvVU49_g-4" style="edgeStyle=orthogonalEdgeStyle;rounded=0;orthogonalLoop=1;jettySize=auto;html=1;exitX=1;exitY=0.5;exitDx=0;exitDy=0;entryX=0;entryY=0.5;entryDx=0;entryDy=0;" edge="1" parent="1" source="DJuS9vDelUrMUvVU49_g-2" target="DJuS9vDelUrMUvVU49_g-1">
          <mxGeometry relative="1" as="geometry" />
        </mxCell>
        <mxCell id="DJuS9vDelUrMUvVU49_g-2" value="Ds0,Ds" style="shape=process;whiteSpace=wrap;html=1;backgroundOutline=1;" vertex="1" parent="1">
          <mxGeometry x="-173" y="-610" width="120" height="60" as="geometry" />
        </mxCell>
        <mxCell id="DJuS9vDelUrMUvVU49_g-8" style="edgeStyle=orthogonalEdgeStyle;rounded=0;orthogonalLoop=1;jettySize=auto;html=1;exitX=1;exitY=0.5;exitDx=0;exitDy=0;entryX=0;entryY=0.5;entryDx=0;entryDy=0;" edge="1" parent="1" source="DJuS9vDelUrMUvVU49_g-3" target="DJuS9vDelUrMUvVU49_g-1">
          <mxGeometry relative="1" as="geometry" />
        </mxCell>
        <mxCell id="DJuS9vDelUrMUvVU49_g-3" value="Da" style="shape=process;whiteSpace=wrap;html=1;backgroundOutline=1;" vertex="1" parent="1">
          <mxGeometry x="-173" y="-544" width="120" height="60" as="geometry" />
        </mxCell>
        <mxCell id="DJuS9vDelUrMUvVU49_g-11" style="edgeStyle=orthogonalEdgeStyle;rounded=0;orthogonalLoop=1;jettySize=auto;html=1;entryX=1;entryY=0.5;entryDx=0;entryDy=0;" edge="1" parent="1" source="DJuS9vDelUrMUvVU49_g-9" target="DJuS9vDelUrMUvVU49_g-1">
          <mxGeometry relative="1" as="geometry" />
        </mxCell>
        <mxCell id="DJuS9vDelUrMUvVU49_g-9" value="LossScore" style="rounded=0;whiteSpace=wrap;html=1;" vertex="1" parent="1">
          <mxGeometry x="248" y="-583" width="120" height="60" as="geometry" />
        </mxCell>
        <mxCell id="DJuS9vDelUrMUvVU49_g-12" style="edgeStyle=orthogonalEdgeStyle;rounded=0;orthogonalLoop=1;jettySize=auto;html=1;exitX=1;exitY=0.5;exitDx=0;exitDy=0;entryX=0;entryY=0.5;entryDx=0;entryDy=0;" edge="1" parent="1" source="DJuS9vDelUrMUvVU49_g-13" target="DJuS9vDelUrMUvVU49_g-19">
          <mxGeometry relative="1" as="geometry" />
        </mxCell>
        <mxCell id="DJuS9vDelUrMUvVU49_g-13" value="Net:Eval" style="rounded=0;whiteSpace=wrap;html=1;" vertex="1" parent="1">
          <mxGeometry x="66" y="-396" width="120" height="60" as="geometry" />
        </mxCell>
        <mxCell id="DJuS9vDelUrMUvVU49_g-14" style="edgeStyle=orthogonalEdgeStyle;rounded=0;orthogonalLoop=1;jettySize=auto;html=1;exitX=1;exitY=0.5;exitDx=0;exitDy=0;entryX=0;entryY=0.5;entryDx=0;entryDy=0;" edge="1" parent="1" source="DJuS9vDelUrMUvVU49_g-15" target="DJuS9vDelUrMUvVU49_g-13">
          <mxGeometry relative="1" as="geometry" />
        </mxCell>
        <mxCell id="DJuS9vDelUrMUvVU49_g-15" value="Ds0" style="shape=process;whiteSpace=wrap;html=1;backgroundOutline=1;" vertex="1" parent="1">
          <mxGeometry x="-170" y="-423" width="120" height="60" as="geometry" />
        </mxCell>
        <mxCell id="DJuS9vDelUrMUvVU49_g-16" style="edgeStyle=orthogonalEdgeStyle;rounded=0;orthogonalLoop=1;jettySize=auto;html=1;exitX=1;exitY=0.5;exitDx=0;exitDy=0;entryX=0;entryY=0.5;entryDx=0;entryDy=0;" edge="1" parent="1" source="DJuS9vDelUrMUvVU49_g-17" target="DJuS9vDelUrMUvVU49_g-13">
          <mxGeometry relative="1" as="geometry" />
        </mxCell>
        <mxCell id="DJuS9vDelUrMUvVU49_g-17" value="Noise" style="shape=process;whiteSpace=wrap;html=1;backgroundOutline=1;" vertex="1" parent="1">
          <mxGeometry x="-170" y="-357" width="120" height="60" as="geometry" />
        </mxCell>
        <mxCell id="DJuS9vDelUrMUvVU49_g-23" style="edgeStyle=orthogonalEdgeStyle;rounded=0;orthogonalLoop=1;jettySize=auto;html=1;exitX=0.5;exitY=1;exitDx=0;exitDy=0;entryX=0.5;entryY=0;entryDx=0;entryDy=0;" edge="1" parent="1" source="DJuS9vDelUrMUvVU49_g-19" target="DJuS9vDelUrMUvVU49_g-21">
          <mxGeometry relative="1" as="geometry" />
        </mxCell>
        <mxCell id="DJuS9vDelUrMUvVU49_g-19" value="Score" style="rounded=0;whiteSpace=wrap;html=1;" vertex="1" parent="1">
          <mxGeometry x="251" y="-396" width="120" height="60" as="geometry" />
        </mxCell>
        <mxCell id="DJuS9vDelUrMUvVU49_g-24" style="edgeStyle=orthogonalEdgeStyle;rounded=0;orthogonalLoop=1;jettySize=auto;html=1;entryX=0.5;entryY=1;entryDx=0;entryDy=0;" edge="1" parent="1" source="DJuS9vDelUrMUvVU49_g-21" target="DJuS9vDelUrMUvVU49_g-13">
          <mxGeometry relative="1" as="geometry" />
        </mxCell>
        <mxCell id="DJuS9vDelUrMUvVU49_g-26" style="edgeStyle=orthogonalEdgeStyle;rounded=0;orthogonalLoop=1;jettySize=auto;html=1;exitX=1;exitY=0.5;exitDx=0;exitDy=0;entryX=0;entryY=0.5;entryDx=0;entryDy=0;" edge="1" parent="1" source="DJuS9vDelUrMUvVU49_g-21" target="DJuS9vDelUrMUvVU49_g-25">
          <mxGeometry relative="1" as="geometry" />
        </mxCell>
        <mxCell id="DJuS9vDelUrMUvVU49_g-21" value="denoise,ode" style="rhombus;whiteSpace=wrap;html=1;" vertex="1" parent="1">
          <mxGeometry x="271" y="-288" width="80" height="80" as="geometry" />
        </mxCell>
        <mxCell id="DJuS9vDelUrMUvVU49_g-25" value="Actions" style="rounded=0;whiteSpace=wrap;html=1;" vertex="1" parent="1">
          <mxGeometry x="496" y="-357" width="120" height="60" as="geometry" />
        </mxCell>
      </root>
    </mxGraphModel>
  </diagram>
</mxfile>
